<svg width="50.000000" height="50.000000" viewBox="0 0 50 50" fill="none" xmlns="http://www.w3.org/2000/svg" xmlns:xlink="http://www.w3.org/1999/xlink">
	<desc>
			Created with Pixso.
	</desc>
	<defs>
		<clipPath id="clip35_1426">
			<rect id="foundation-telephone" rx="0.000000" width="24.000000" height="24.000000" transform="translate(13.000000 13.003082) rotate(-0.000000)" fill="white" fill-opacity="0"/>
		</clipPath>
	</defs>
	<path id="Vector" d="M24.99 0C38.79 0 50 11.2 50 25C50 38.79 38.79 50 24.99 50C11.18 50 0 38.79 0 25C0 11.2 11.18 0 24.99 0Z" fill="#E31E24" fill-opacity="1.000000" fill-rule="evenodd"/>
	<rect id="foundation-telephone" rx="0.000000" width="24.000000" height="24.000000" transform="translate(13.000000 13.003082) rotate(-0.000000)" fill="#FFFFFF" fill-opacity="0"/>
	<g clip-path="url(#clip35_1426)">
		<path id="Vector" d="M33.74 30.06C33.69 29.8 33.53 29.58 33.29 29.45L29.71 27.34L29.68 27.32C29.53 27.24 29.36 27.21 29.19 27.21C28.89 27.21 28.6 27.32 28.41 27.52L27.35 28.58C27.3 28.62 27.16 28.68 27.11 28.69C27.1 28.69 25.88 28.6 23.64 26.35C21.4 24.12 21.3 22.89 21.3 22.89C21.3 22.83 21.36 22.68 21.41 22.64L22.31 21.74C22.63 21.42 22.72 20.89 22.53 20.48L20.54 16.73C20.4 16.43 20.12 16.25 19.8 16.25C19.58 16.25 19.37 16.34 19.2 16.51L16.75 18.96C16.51 19.2 16.31 19.61 16.26 19.94C16.24 20.09 15.8 23.86 20.97 29.02C25.35 33.4 28.77 33.75 29.71 33.75C29.83 33.75 29.94 33.74 30.06 33.73C30.38 33.68 30.79 33.48 31.03 33.25L33.48 30.79C33.69 30.59 33.78 30.32 33.74 30.06Z" fill="#FFFFFF" fill-opacity="1.000000" fill-rule="nonzero"/>
	</g>
</svg>
