<svg width="225.000000" height="80.000000" viewBox="0 0 225 80" fill="none" xmlns="http://www.w3.org/2000/svg" xmlns:xlink="http://www.w3.org/1999/xlink">
	<desc>
			Created with Pixso.
	</desc>
	<defs/>
	<path id="Vector" d="M99.29 51.6C99.61 51.6 101.15 51.63 101.48 51.63C106.06 51.75 109.97 53.22 109.79 58.75C109.73 61 107.6 62.3 104.91 62.75C103.22 63.05 100.59 63.02 98.9 62.69C96.36 62.18 94.4 60.88 94.4 58.69L94.4 56.47C93.69 56.71 92.98 56.98 92.33 57.37L90 53.49C91.36 52.74 92.87 52.17 94.4 51.84L94.4 49.71C92.87 49.38 91.36 48.83 90 48.05L92.33 44.21C92.98 44.57 93.69 44.87 94.4 45.08L94.4 43.34C94.4 41.14 96.36 39.82 98.9 39.31C100.59 38.98 103.22 38.98 104.91 39.28C107.6 39.73 109.73 41.02 109.79 43.28C109.97 48.8 106.06 50.25 101.48 50.37C101.15 50.4 99.61 50.4 99.29 50.43L99.29 51.6ZM159.53 30.05C159.65 29.42 159.74 28.79 159.86 28.19C167.76 30.29 179.86 30.17 187.29 28.22C187.41 28.82 187.49 29.42 187.61 30.05C179.95 32.19 167.23 32.19 159.53 30.05ZM160.69 23.71C161.31 20.41 161.96 17.13 162.52 13.68L157.58 13.68L154.8 28.97C154.27 31.77 155.33 33.15 157.55 34.2C159.3 35.04 161.4 35.58 163.32 35.88C169.21 36.87 177.97 36.84 183.83 35.88C185.63 35.58 187.47 35.13 189.12 34.41C191.67 33.33 192.91 31.95 192.35 28.97L189.54 13.68L184.62 13.68C185.19 17.13 185.84 20.41 186.46 23.71C183.35 24.46 179.62 24.88 175.78 25L175.78 13.68L170.92 13.68L170.92 25C167.26 24.85 163.67 24.43 160.69 23.71ZM203 13.68L201.11 23.89C206.14 25.25 213.95 25.25 218.95 23.89L217.11 13.68L222.03 13.68C222.94 18.84 223.86 24.07 224.84 29.21C225.34 31.71 224.78 33.45 221.14 34.86C217.91 36.27 213.47 36.6 210.01 36.6C206.49 36.6 201.82 36.24 198.59 34.71C195.25 33.33 194.74 31.62 195.22 29.21L198.09 13.68L203 13.68ZM200.25 28.46L199.89 30.32C202.97 31.38 206.79 31.68 210.01 31.68C213.24 31.68 217.06 31.38 220.1 30.32L219.78 28.46C214.54 30.14 205.6 30.17 200.25 28.46ZM117.63 14.97C120.86 16.35 121.33 18.06 120.89 20.44C120.65 21.52 120.47 22.63 120.3 23.74L115.35 23.74C115.62 22.27 115.89 20.8 116.15 19.33C111.3 17.49 101.89 17.49 96.18 19.33C96.42 20.47 96.59 21.46 96.89 22.6C98.46 28.43 100.26 31.56 106.65 31.71C110.35 31.8 113.93 30.74 115.59 29.78L117.99 34.05C115.8 35.34 111.18 36.72 106.57 36.6C95.29 36.33 93.07 30.08 91.27 20.5C90.68 17.34 91.89 15.99 94.73 14.85C100.86 12.35 111.57 12.35 117.63 14.97ZM149.77 24.7C153.44 23.29 153.97 21.55 153.5 19.05C153.17 17.25 152.84 15.48 152.52 13.68L147.58 13.68L148.76 20.17C143.67 22 134.11 22.06 128.55 20.17L129.76 13.68L124.88 13.68L123.88 19.05C123.4 21.46 123.91 23.17 127.22 24.55C131.36 26.3 137.64 26.9 143.23 26.24L144.06 30.77C140.89 32.22 135.98 31.95 133.28 30.89C133.46 29.96 133.64 29.03 133.79 28.1L128.82 28.1C128.7 28.79 128.55 29.48 128.43 30.2C128.02 32.49 128.55 34.14 131.6 35.49C135.74 37.24 141.72 37.3 146.25 35.25C148.91 33.93 149.35 32.31 148.91 30.08C148.61 28.49 148.32 26.96 147.99 25.34C148.52 25.19 149.32 24.91 149.77 24.7ZM126.72 28.1C126.13 31.13 125.71 33.3 125.12 36.36C122.28 35.16 120.83 33.27 121.27 30.65L121.75 28.1L126.72 28.1ZM220.1 45.68C214.54 43.73 204.89 43.73 199.92 45.68L200.43 48.53L195.48 48.53L195.16 46.79C194.71 44.39 195.22 42.67 198.56 41.29C204.63 38.74 215.13 38.74 221.26 41.2C224.25 42.37 225.37 43.76 224.75 47.03C224.19 49.92 223.62 51.99 222.74 54.51C224.19 56.74 224.93 59.62 224.93 62.3L220.1 62.3C220.1 62 219.98 60.01 219.63 59.26C218.03 60.73 216.08 61.73 214.01 62.33C212.08 62.87 209.98 63.08 208 62.96C196.58 62.3 192.26 51.75 205.04 48.86C209.57 47.84 214.9 48.41 218.89 50.91C219.36 49.35 219.75 47.51 220.1 45.68ZM212.71 57.58C214.27 57.13 215.69 56.38 216.67 55.3C215.07 54.18 213.03 53.58 211.11 53.4C209.36 53.22 207.65 53.31 206.11 53.67C204.3 54.06 202.88 54.72 202.32 55.51C202.7 56.17 203.44 56.71 204.36 57.13C206.82 58.27 210.13 58.3 212.71 57.58ZM191.13 62.3L187.17 52.26C185.81 48.38 181.31 48.38 179.95 52.26L175.98 62.3L170.84 62.3L175.39 50.61C176.4 47.78 178.32 45.92 180.51 45.05L174.21 45.05L174.21 40.09L192.91 40.09L192.91 45.05L186.61 45.05C188.8 45.92 190.72 47.78 191.73 50.61L196.28 62.3L191.13 62.3ZM168.59 41.32C171.81 42.7 172.29 44.39 171.84 46.76C171.6 47.87 171.43 48.98 171.25 50.1L166.31 50.1C166.57 48.62 166.84 47.15 167.11 45.65C162.11 43.82 152.7 43.82 147.13 45.68C147.37 46.82 147.55 47.81 147.84 48.95C149.41 54.78 151.22 57.88 157.61 58.03C161.31 58.12 164.89 57.1 166.55 56.14L168.94 60.4C166.75 61.67 162.14 63.05 157.52 62.96C146.25 62.69 144.03 56.44 142.22 46.85C141.63 43.7 142.84 42.34 145.68 41.17C151.81 38.71 162.52 38.71 168.59 41.32ZM116.8 56.68C122.34 58.63 132.01 58.66 136.98 56.68L136.45 53.82L141.39 53.82L141.72 55.57C142.19 57.97 141.69 59.68 138.32 61.06C132.25 63.62 121.75 63.62 115.65 61.16C112.66 59.98 111.51 58.6 112.16 55.33C112.69 52.44 113.34 50.22 114.2 47.69C113.31 46.31 112.66 44.75 112.31 43.09L117.28 43.09C118.88 41.62 120.8 40.63 122.87 40.03C124.82 39.49 126.89 39.28 128.88 39.4C140.3 40.06 144.65 50.61 131.84 53.49C127.31 54.51 121.98 53.94 117.99 51.45C117.51 53.01 117.13 54.84 116.8 56.68ZM124.2 44.78C122.6 45.23 121.21 45.98 120.21 47.06C121.83 48.17 123.85 48.77 125.8 48.95C127.52 49.13 129.26 49.04 130.77 48.68C132.58 48.29 134 47.63 134.59 46.85C134.17 46.19 133.43 45.65 132.55 45.23C130.09 44.09 126.75 44.06 124.2 44.78ZM99.29 44.06L99.29 46.04C100.83 46.07 105.09 46.19 105 44C103.25 43.58 101 43.58 99.29 44.06ZM99.29 57.97L99.29 55.96C100.83 55.96 105.09 55.84 105 58.03C103.25 58.45 101 58.45 99.29 57.97Z" fill="#1D1E1C" fill-opacity="1.000000" fill-rule="evenodd"/>
	<path id="Vector" d="M39.98 0C62.07 0 80 17.92 80 40.01C80 62.07 62.07 80 39.98 80C17.89 80 0 62.07 0 40.01C0 17.92 17.89 0 39.98 0Z" fill="#E31E24" fill-opacity="1.000000" fill-rule="evenodd"/>
	<path id="Vector" d="M44.47 49.39L44.47 46.81C46.56 46.78 48.66 46.81 50.75 46.7C58.27 46.31 64.18 43.62 63.93 34.88C63.79 30.66 59.21 28.88 55.68 28.3C52.66 27.8 47.11 27.8 44.11 28.41C40.67 29.08 36.54 30.88 36.54 34.99L36.54 38.65C30.21 37.4 28.32 33.77 26.49 28.38C25.44 25.25 24.69 22 24.27 19.03C33.43 15.73 48.17 15.76 55.93 19C55.57 21.2 55.35 22.69 55.02 24.8L62.93 24.8C63.18 23.39 63.4 21.97 63.68 20.58C64.4 16.84 63.65 14.17 58.52 11.98C48.78 7.85 31.65 7.85 21.86 11.79C17.28 13.62 15.34 15.73 16.28 20.7C18.92 34.57 22.14 44.34 36.54 46.17L36.54 49.44C25.61 50.53 19.69 56.19 17.67 66.76L25.58 66.76C27.35 60.32 30.38 57.35 36.54 56.6L36.54 61.24C36.54 65.32 40.67 67.15 44.11 67.81C47.11 68.4 52.66 68.4 55.68 67.9C59.21 67.31 63.79 65.54 63.93 61.32C64.18 52.55 58.24 49.86 50.69 49.5C48.61 49.39 46.56 49.42 44.47 49.39ZM56.1 35.87C56.16 37.32 55.52 38.32 54.27 38.93C51.49 40.31 45.08 39.93 44.45 39.9L44.45 35.99C47.83 35.07 52.69 35.04 56.1 35.87ZM44.45 60.21L44.45 56.3C45.14 56.27 51.27 55.91 54.08 57.19C55.41 57.8 56.16 58.79 56.1 60.32C52.69 61.15 47.83 61.13 44.45 60.21Z" fill="#FEFEFE" fill-opacity="1.000000" fill-rule="evenodd"/>
</svg>
